<?xml version="1.0" encoding="UTF-8" standalone="no"?>
<svg
   xmlns:dc="http://purl.org/dc/elements/1.1/"
   xmlns:cc="http://creativecommons.org/ns#"
   xmlns:rdf="http://www.w3.org/1999/02/22-rdf-syntax-ns#"
   xmlns:svg="http://www.w3.org/2000/svg"
   xmlns="http://www.w3.org/2000/svg"
   xmlns:xlink="http://www.w3.org/1999/xlink"
   xmlns:sodipodi="http://sodipodi.sourceforge.net/DTD/sodipodi-0.dtd"
   xmlns:inkscape="http://www.inkscape.org/namespaces/inkscape"
   sodipodi:docname="Donamaid.svg"
   inkscape:version="1.0 (4035a4fb49, 2020-05-01)"
   id="svg1593"
   version="1.1"
   viewBox="0 0 6.8791666 6.8791666"
   height="26"
   width="26">
  <defs
     id="defs1587">
    <linearGradient
       gradientTransform="matrix(0.07237419,0,0,0.07237419,0.02551638,0.03292239)"
       y2="2.8299999"
       x2="91.959999"
       y1="92.220001"
       x1="2.5699999"
       gradientUnits="userSpaceOnUse"
       id="linearGradient868"
       xlink:href="#Gradiente_sem_nome_12"
       inkscape:collect="always" />
    <linearGradient
       gradientUnits="userSpaceOnUse"
       y2="2.8299999"
       x2="91.959999"
       y1="92.220001"
       x1="2.5699999"
       id="Gradiente_sem_nome_12">
      <stop
         id="stop835"
         stop-color="#5b317e"
         offset="0" />
      <stop
         id="stop837"
         stop-color="#a11a65"
         offset="1" />
    </linearGradient>
  </defs>
  <sodipodi:namedview
     inkscape:snap-object-midpoints="false"
     width="26px"
     units="px"
     inkscape:snap-page="false"
     inkscape:window-maximized="1"
     inkscape:window-y="-8"
     inkscape:window-x="-8"
     inkscape:window-height="1017"
     inkscape:window-width="1920"
     showgrid="false"
     inkscape:document-rotation="0"
     inkscape:current-layer="layer1"
     inkscape:document-units="px"
     inkscape:cy="12.327554"
     inkscape:cx="24.433047"
     inkscape:zoom="22.4"
     inkscape:pageshadow="2"
     inkscape:pageopacity="0.0"
     borderopacity="1.0"
     bordercolor="#666666"
     pagecolor="#ffffff"
     id="base" />
  <metadata
     id="metadata1590">
    <rdf:RDF>
      <cc:Work
         rdf:about="">
        <dc:format>image/svg+xml</dc:format>
        <dc:type
           rdf:resource="http://purl.org/dc/dcmitype/StillImage" />
        <dc:title></dc:title>
      </cc:Work>
    </rdf:RDF>
  </metadata>
  <g
     id="layer1"
     inkscape:groupmode="layer"
     inkscape:label="Layer 1">
    <rect
       class="cls-1"
       width="6.7827959"
       height="6.8201079"
       rx="0.66227877"
       ry="0.66227877"
       id="rect852"
       style="fill:url(#linearGradient868);stroke-width:0.0717528"
       x="0.025516683"
       y="0.032922179" />
    <path
       style="fill:#ffffff;stroke-width:0.0723741"
       class="cls-4"
       d="M 5.645372,4.6395394 A 0.32713134,0.32713134 0 0 0 5.6084605,4.5461769 0.27936437,0.27936437 0 0 0 5.4868718,4.436168 C 5.3283717,4.3855061 5.0142681,4.9239701 4.6907577,5.1403688 v 0 a 0.76354767,0.76354767 0 0 1 -0.068033,0.040529 0.4566811,0.4566811 0 0 1 -0.068032,0.028949 0.18383043,0.18383043 0 0 1 -0.02678,0.00724 v 0 h -0.022431 -0.025329 a 0.09408644,0.09408644 0 0 1 -0.02678,-0.00578 C 4.3165874,5.1649757 4.2955987,4.8819925 4.2955987,4.7524428 a 4.0124248,4.0124248 0 0 1 0.02678,-0.4081904 q 0.01086,-0.099152 0.021719,-0.1954103 c 0,-0.020988 0.00579,-0.041977 0.00796,-0.062966 0.00506,-0.042701 0.01086,-0.085403 0.016632,-0.1281024 0,-0.024607 0.00652,-0.04849 0.010126,-0.072374 0.00506,-0.038358 0.010859,-0.076717 0.016658,-0.1150751 0.00361,-0.024607 0.00725,-0.049214 0.01157,-0.072373 0.00579,-0.037634 0.01157,-0.072374 0.018108,-0.1107327 0,-0.023883 0.00796,-0.04849 0.012309,-0.072373 l 0.01953,-0.1092851 0.01302,-0.072374 c 0.00725,-0.039082 0.01521,-0.07744 0.023169,-0.1157986 0.00435,-0.018817 0.00796,-0.038359 0.01157,-0.057175 0.012309,-0.055728 0.02388,-0.1100088 0.036912,-0.1642893 v -0.0029 0 A 1.3751095,1.3751095 0 0 1 4.7464778,2.5262138 c 0.01157,-0.016644 0.023169,-0.034016 0.035462,-0.050663 A 2.5757973,2.5757973 0 0 0 4.9382678,2.2215177 1.5697961,1.5697961 0 0 0 5.0547904,1.9370874 1.0725855,1.0725855 0 0 0 5.104728,1.6251546 0.72374185,0.72374185 0 0 0 4.9599814,1.2444662 C 4.8485247,1.0657023 4.7291052,0.97668189 4.5981095,0.97668189 c -0.080336,0 -0.1599471,0.0492143 -0.2402832,0.14474841 C 4.1182679,1.4109269 3.9127243,1.9587996 3.7303414,2.8186048 3.6883667,2.8120918 3.6275723,2.8026819 3.5537494,2.793997 A 3.7945785,3.7945785 0 0 0 3.1716137,2.766495 h -0.072373 -0.00725 l -0.064413,0.00506 v 0 Q 2.5441178,2.8243942 2.0917818,3.2173862 1.3383645,3.8687538 1.3383645,5.0064758 a 0.96330043,0.96330043 0 0 0 0.279364,0.7150569 q 0.2894984,0.2945628 0.7664422,0.2945628 a 1.5343328,1.5343328 0 0 0 0.506621,-0.081059 v 0 a 1.199964,1.199964 0 0 0 0.199028,-0.089021 v 0 c 0.029674,-0.016644 0.057901,-0.03474 0.085403,-0.053557 l 0.01086,-0.00724 a 0.90901979,0.90901979 0 0 0 0.079611,-0.059347 0.00723742,0.00723742 0 0 0 0.00361,0 c 0.027502,-0.022436 0.054282,-0.046319 0.080336,-0.072374 l 0.00579,-0.00652 c 0.021719,-0.021711 0.043424,-0.044148 0.063689,-0.067308 l 0.01953,-0.022436 c 0.016659,-0.019541 0.032568,-0.04053 0.049215,-0.061519 l 0.018082,-0.023883 c 0.02098,-0.028949 0.041252,-0.058623 0.060794,-0.089745 0.01521,0.059347 0.1302737,0.4972108 0.4798416,0.6014297 0.017369,0.00506 0.033289,0.00868 0.049938,0.012303 h 0.012309 l 0.039081,0.00506 h 0.00725 0.045596 v 0 h 0.0427 v 0 c 0.024619,0 0.047768,-0.00434 0.072376,-0.00724 C 4.4215038,5.9806327 4.6523772,5.9306954 5.0779374,5.5304667 5.6250862,5.0195048 5.6605507,4.7119145 5.6453501,4.6395405 Z M 3.6029728,3.5199107 C 3.5740214,3.7160448 3.5515855,3.9042175 3.536388,4.085877 3.5284278,4.1770683 3.522629,4.2653648 3.5183063,4.3529377 A 1.1406172,1.1406172 0 0 1 3.3590845,4.8942965 0.82651321,0.82651321 0 0 1 3.1549879,5.1266176 c -0.01882,0.01375 -0.036912,0.02678 -0.055728,0.039082 -0.01882,0.012304 -0.032568,0.020988 -0.04849,0.030397 h -0.00579 a 0.83809307,0.83809307 0 0 1 -0.10929,0.052833 v 0 a 0.63472161,0.63472161 0 0 1 -0.2373873,0.047767 q -0.3799666,0 -0.3799666,-0.5145806 A 1.4424175,1.4424175 0 0 1 2.7178416,3.7428233 1.970749,1.970749 0 0 1 2.9537837,3.5343857 v 0 c 0.047039,-0.03474 0.095532,-0.066585 0.1447455,-0.096981 l 0.02388,-0.014476 0.063689,-0.035464 0.041977,-0.020988 0.057175,-0.027502 c 0.031121,-0.014476 0.062967,-0.027503 0.095533,-0.039806 l 0.041255,-0.014476 c 0.02533,-0.00868 0.05066,-0.017369 0.076715,-0.024607 a 0.36766085,0.36766085 0 0 1 0.037637,-0.010858 C 3.5740232,3.2383707 3.6131062,3.2289647 3.652188,3.2210017 3.633368,3.3223256 3.617448,3.4222016 3.602973,3.519907 Z"
       id="path858" />
  </g>
</svg>
