<svg xmlns="http://www.w3.org/2000/svg" xmlns:xlink="http://www.w3.org/1999/xlink" viewBox="0 0 537.12 95.05"><defs><style>.cls-1{fill:url(#Gradiente_sem_nome_12);}.cls-2{fill:url(#Gradiente_sem_nome_16);}.cls-3{fill:url(#Gradiente_sem_nome_7);}.cls-4{fill:#fff;}</style><linearGradient id="Gradiente_sem_nome_12" x1="2.57" y1="92.22" x2="91.96" y2="2.83" gradientUnits="userSpaceOnUse"><stop offset="0" stop-color="#5b317e"/><stop offset="1" stop-color="#a11a65"/></linearGradient><linearGradient id="Gradiente_sem_nome_16" x1="462.6" y1="25.74" x2="474.96" y2="13.38" gradientUnits="userSpaceOnUse"><stop offset="0" stop-color="#961868"/><stop offset="0.6" stop-color="#a11a65"/><stop offset="1" stop-color="#a11a65"/></linearGradient><linearGradient id="Gradiente_sem_nome_7" x1="119.66" y1="46.18" x2="537.12" y2="46.18" xlink:href="#Gradiente_sem_nome_12"/></defs><title>Ativo 2</title><g id="Camada_2" data-name="Camada 2"><g id="Camada_1-2" data-name="Camada 1"><rect class="cls-1" width="94.53" height="95.05" rx="9.23" ry="9.23"/><path class="cls-2" d="M464.08,27.22a4.89,4.89,0,0,0,3.65,1.34,7.84,7.84,0,0,0,5.09-2.09,9.59,9.59,0,0,0,2-2.23A10,10,0,0,0,476.37,19a9.54,9.54,0,0,0-2.31-6.43c-.68-.76-2.73-3-5.32-2.68s-3.92,2.94-4.67,4.35a14.16,14.16,0,0,0-1.34,7.06,13.77,13.77,0,0,0,.33,3C463.4,25.79,463.52,26.56,464.08,27.22Z"/><path class="cls-3" d="M537.09,61.62a4.5,4.5,0,0,0-.51-1.3,3.71,3.71,0,0,0-1.68-1.51c-2.49-.8-7.78,9-12.88,10.68a2.19,2.19,0,0,1-1.43.06c-1.86-.67-2.12-4.54-2.12-6.38,0-1.41.13-3.29.37-5.63a153.69,153.69,0,0,1,3-18.67,18.92,18.92,0,0,1,2.89-6.54c.14-.2.28-.41.43-.61a35.59,35.59,0,0,0,2.16-3.51A21,21,0,0,0,529,24.28a14.82,14.82,0,0,0,.65-4.34,10,10,0,0,0-2-5.26q-2.3-3.7-5-3.7c-1.11,0-2.21.68-3.32,2-3.31,4-6.15,11.56-8.67,23.45-.58-.1-1.42-.22-2.44-.34a52.43,52.43,0,0,0-5.28-.38q-7.74,0-14.92,6.19a29.66,29.66,0,0,0-10.06,19.26.11.11,0,0,0,0,.05L475.28,64q-2,2.07-4.06,3.83a5.79,5.79,0,0,1-3.36,1.76,3.68,3.68,0,0,1-2.3-.74,3.18,3.18,0,0,1-1-2.68q0-1.93,2.12-10.07,2.21-9.33,2.21-13a11.85,11.85,0,0,0-1.2-5.45Q466.16,34,463.49,34q-4.51,0-8.11,11.83a56.37,56.37,0,0,0-2.17,12.75,11.67,11.67,0,0,0-1.42,1.38q-9.21,9.61-11.61,9.61c-1.28,0-1.93-2.56-1.93-7.67a90.16,90.16,0,0,1,.43-9.75,10,10,0,0,1,1.25-3.8,59.33,59.33,0,0,0,2.83-5.66c0-1.67-1-3.44-2.9-5.32a8.74,8.74,0,0,0-6.12-2.81c-1.11,0-2.09.89-2.95,2.68a14.13,14.13,0,0,0-6.91-1.48,26.79,26.79,0,0,0-8.06,1.2,24.32,24.32,0,0,0-8.24,5,29.74,29.74,0,0,0-10.07,19.31L394.87,64q-2,2.07-4.05,3.83a5.81,5.81,0,0,1-3.41,1.76c-.49,0-.74-.39-.74-1.16a13.57,13.57,0,0,1,.56-3.23c.36-1.39.78-3,1.24-4.76s.87-3.69,1.24-5.72a38.52,38.52,0,0,0,.55-6.84,8.72,8.72,0,0,0-2.57-6.38q-2.58-2.58-7.56-2.58-8.1,0-13.72,7v-1a8.29,8.29,0,0,0-3.13-6.6,10.71,10.71,0,0,0-7.09-2.64c-4,0-7.46,1.85-10.41,5.55a13.9,13.9,0,0,0-1.11-2.4q-2.58-5-5.62-5c-1.29,0-2.48.86-3.59,2.58a42.72,42.72,0,0,0-6.26,16.26q-.42,2.43-.67,6.13a12.8,12.8,0,0,0-1.17,1.17q-9.21,9.61-11.61,9.61-1.94,0-1.93-7.67,0-5.25.34-8.9a13.09,13.09,0,0,1,1.58-5.09,58,58,0,0,0,2.59-5.22c0-1.67-1-3.44-2.9-5.32a8.76,8.76,0,0,0-6.12-2.81c-1.11,0-2.09.89-2.95,2.68a14.16,14.16,0,0,0-6.91-1.48,26.79,26.79,0,0,0-8.06,1.2,24.32,24.32,0,0,0-8.24,5,29.74,29.74,0,0,0-10.07,19.31L270.44,64q-2,2.07-4.05,3.83A5.81,5.81,0,0,1,263,69.55c-.68,0-1-.49-1-1.48a15.14,15.14,0,0,1,.59-3.74q.6-2.27,1.94-7.53a42.13,42.13,0,0,0,1.33-10.39q0-5.13-3.22-7.95T253,35.64a14.23,14.23,0,0,0-10.73,4.53q-3-6.37-6.27-6.37c-1.29,0-2.48.86-3.59,2.58a41.61,41.61,0,0,0-4.56,9.34,70.42,70.42,0,0,1-10.07,3.13A22.18,22.18,0,0,0,211,38.37a11,11,0,0,0-6.64-3,5.61,5.61,0,0,0-.58,0h-.07c-.6,0-2.58.32-2.58.32-.82-.06-1.69-.1-2.6-.1q-11.34,0-18.33,8a27,27,0,0,0-6.87,17.15h0c0,.11,0,.21,0,.32-1,1.34-5.58,7.36-9.18,8.52a2.15,2.15,0,0,1-1.43.06c-1.86-.67-2.12-4.54-2.12-6.38a55.45,55.45,0,0,1,.37-5.63,147.06,147.06,0,0,1,3.62-21.07,7.61,7.61,0,0,1,1.09-2.39l1.64-2.36a35.7,35.7,0,0,0,2.17-3.51,21.69,21.69,0,0,0,1.61-3.93,14.81,14.81,0,0,0,.64-4.34,10,10,0,0,0-2-5.26c-1.54-2.47-3.19-3.7-5-3.7-1.1,0-2.21.68-3.31,2-3.32,4-6.15,11.56-8.67,23.45-.58-.1-1.43-.22-2.44-.34a52.37,52.37,0,0,0-5.29-.38q-7.73,0-14.92,6.19-10.41,9-10.4,24.75a13.29,13.29,0,0,0,3.86,9.89q4,4.07,10.6,4.06,10.86,0,16.39-8.77c.21.82,1.8,6.87,6.63,8.31a8.53,8.53,0,0,0,3.7.17c4.36-.54,7.35-3.38,10.53-6.4a40.51,40.51,0,0,0,3.39-3.64,17.2,17.2,0,0,0,3.47,5.11q5.07,5.22,15.25,5.22a22.25,22.25,0,0,0,5.85-.78s.54-.15,1.08-.32a25.66,25.66,0,0,0,12.2-8.88,8.87,8.87,0,0,0,.71-1c0-.06.06-.11.09-.16a24.1,24.1,0,0,0,2-3.65,36.59,36.59,0,0,0,2.07-5.26,19.38,19.38,0,0,0,.94-4c.05-.39.07-.77.1-1.15l7.45-1.8c-.22,1.53-.4,3.35-.53,5.48A74.9,74.9,0,0,0,225,69.78c0,.58,0,.39.09,1.71.22,4.4.23,5.7.88,7.48a3.2,3.2,0,0,0,3.18,2.4,5.89,5.89,0,0,0,2.11-.46q7.83-3,7.83-6.19a20.14,20.14,0,0,0-1-4.62,22.86,22.86,0,0,1-1-6.46V63a36,36,0,0,1,4.65-11.78q3.45-5.68,7.28-5.68c2.54,0,3.82,1.11,3.82,3.33a17,17,0,0,1-.46,4c-.31,1.29-.78,3.35-1.43,6.19a42.3,42.3,0,0,0-1,9.33q0,11.82,7.37,11.82a.55.55,0,0,0,.37.09q3,0,13.63-6.28a27,27,0,0,0,2.11-2.21,13.32,13.32,0,0,0,3.05,4.8,13.92,13.92,0,0,0,10.45,4.06q6.49,0,10.36-2.54a20.11,20.11,0,0,0,6.27-6.51q1.65,8.6,6.54,8.59a17.44,17.44,0,0,0,7.37-1.75,28.76,28.76,0,0,0,6.86-4.48,25.89,25.89,0,0,0,3.73-4.08v1.72a23.21,23.21,0,0,0,.87,7.39,3.2,3.2,0,0,0,3.18,2.4,6,6,0,0,0,2.12-.46q7.83-3,7.83-6.19a20.33,20.33,0,0,0-1-4.62,25.63,25.63,0,0,1-1-7.25q0-3.93,3.78-10.62c2.51-4.47,4.73-6.7,6.63-6.7s2.85,1,2.85,3.14c0,1-.07,2.26-.23,3.83s-.3,3.39-.46,5.45-.3,4.32-.46,6.75-.23,5-.23,7.76A19.37,19.37,0,0,0,353,79a3.2,3.2,0,0,0,3.18,2.4,5.89,5.89,0,0,0,2.11-.46q7.83-3,7.83-6.19a20.14,20.14,0,0,0-1-4.62,22.86,22.86,0,0,1-1-6.46v-.19a33.07,33.07,0,0,1,4.24-10q2.94-4.66,5.34-4.67,3.5,0,3.5,3.05a47.14,47.14,0,0,1-1,7.85,48.85,48.85,0,0,0-1,8.41q0,12.11,6.63,12.1,7.37,0,13.86-6.1A26.9,26.9,0,0,0,398,71.74,13.33,13.33,0,0,0,401,76.57a13.94,13.94,0,0,0,10.45,4.06q6.5,0,10.37-2.54a20.18,20.18,0,0,0,6.26-6.51q1.65,8.6,6.54,8.59A17.44,17.44,0,0,0,442,78.42a28.76,28.76,0,0,0,6.86-4.48,25.61,25.61,0,0,0,4.51-5.22q1.39,11.44,8.89,11.45t13.86-6a27.11,27.11,0,0,0,2.24-2.36h0a13.41,13.41,0,0,0,3.05,4.8q4,4.07,10.59,4.06,10.86,0,16.39-8.77c.21.82,1.8,6.87,6.64,8.31a8.49,8.49,0,0,0,3.69.17c1.46-.18,4.65-.87,10.54-6.4C536.81,66.87,537.3,62.61,537.09,61.62Zm-387.3-4a15.77,15.77,0,0,1-2.21,7.48,11.42,11.42,0,0,1-2.82,3.21,10.44,10.44,0,0,1-6.3,2.4q-5.25,0-5.25-7.11a20,20,0,0,1,5.52-14.42,24.33,24.33,0,0,1,12.9-7.2A126.58,126.58,0,0,0,149.79,57.66Zm60.38-8.84a7.52,7.52,0,0,1-5.9-2.1,5,5,0,0,1-1.21-1.9,1.64,1.64,0,0,1,.13-1.81c.94-1,2.13-.86,3.59.48A13.44,13.44,0,0,1,210.17,48.82ZM189.25,67.93a10.25,10.25,0,0,1-2.44-7,18,18,0,0,1,5.11-13.17c.37-.37,1.37-1.15,2.14-1.74a11.58,11.58,0,0,0,0,1.67,12.14,12.14,0,0,0,1.88,5.9,12.69,12.69,0,0,0,7.85,5.21,14,14,0,0,0,7.12-.23,17.66,17.66,0,0,1-1.08,3.19,21.19,21.19,0,0,1-3.73,5,20.76,20.76,0,0,1-2.49,2.09,13.73,13.73,0,0,1-7.41,1.85A8.65,8.65,0,0,1,189.25,67.93ZM302.88,57.66a15.76,15.76,0,0,1-2.2,7.48,11.42,11.42,0,0,1-2.82,3.21,10.47,10.47,0,0,1-6.31,2.4q-5.25,0-5.25-7.11a20,20,0,0,1,5.52-14.42,24.37,24.37,0,0,1,12.9-7.2A128.54,128.54,0,0,0,302.88,57.66Zm124.42,0a15.76,15.76,0,0,1-2.2,7.48,11.42,11.42,0,0,1-2.82,3.21,10.47,10.47,0,0,1-6.31,2.4q-5.25,0-5.25-7.11a20,20,0,0,1,5.52-14.42,24.37,24.37,0,0,1,12.9-7.2A128.54,128.54,0,0,0,427.3,57.66Zm80.4,0a15.76,15.76,0,0,1-2.2,7.48,11.42,11.42,0,0,1-2.82,3.21,10.49,10.49,0,0,1-6.31,2.4q-5.25,0-5.25-7.11a20,20,0,0,1,5.52-14.42,24.37,24.37,0,0,1,12.9-7.2A128.54,128.54,0,0,0,507.7,57.66Z"/><path class="cls-4" d="M77.65,63.65a4.52,4.52,0,0,0-.51-1.29,3.86,3.86,0,0,0-1.68-1.52c-2.19-.7-6.53,6.74-11,9.73h0a10.55,10.55,0,0,1-.94.56,6.31,6.31,0,0,1-.94.4,2.54,2.54,0,0,1-.37.1h0l-.31,0h-.35a1.3,1.3,0,0,1-.37-.08C59.29,70.91,59,67,59,65.21a55.44,55.44,0,0,1,.37-5.64q.15-1.37.3-2.7c0-.29.08-.58.11-.87.07-.59.15-1.18.23-1.77,0-.34.09-.67.14-1,.07-.53.15-1.06.23-1.59.05-.34.1-.68.16-1,.08-.52.16-1,.25-1.53,0-.33.11-.67.17-1l.27-1.51.18-1c.1-.54.21-1.07.32-1.6.06-.26.11-.53.16-.79.17-.77.33-1.52.51-2.27V40.9h0a19,19,0,0,1,2.83-6.45c.16-.23.32-.47.49-.7a35.59,35.59,0,0,0,2.16-3.51,21.69,21.69,0,0,0,1.61-3.93A14.82,14.82,0,0,0,70.18,22a10,10,0,0,0-2-5.26c-1.54-2.47-3.19-3.7-5-3.7-1.11,0-2.21.68-3.32,2-3.31,4-6.15,11.57-8.67,23.45-.58-.09-1.42-.22-2.44-.34a52.43,52.43,0,0,0-5.28-.38l-1,0h-.1l-.89.07h0Q34.8,38.57,28.55,44,18.14,53,18.14,68.72A13.31,13.31,0,0,0,22,78.6q4,4.07,10.59,4.07a21.2,21.2,0,0,0,7-1.12h0a16.58,16.58,0,0,0,2.75-1.23h0c.41-.23.8-.48,1.18-.74l.15-.1a12.56,12.56,0,0,0,1.1-.82.1.1,0,0,0,.05,0c.38-.31.75-.64,1.11-1l.08-.09c.3-.3.6-.61.88-.93l.27-.31c.23-.27.45-.56.68-.85l.25-.33c.29-.4.57-.81.84-1.24.21.82,1.8,6.87,6.63,8.31.24.07.46.12.69.17l.17,0,.54.07h.1l.63,0h0l.59,0h0c.34,0,.66-.06,1-.1,1.46-.18,4.65-.87,10.53-6.4C77.37,68.9,77.86,64.65,77.65,63.65ZM49.43,48.18c-.4,2.71-.71,5.31-.92,7.82-.11,1.26-.19,2.48-.25,3.69a15.76,15.76,0,0,1-2.2,7.48,11.42,11.42,0,0,1-2.82,3.21c-.26.19-.51.37-.77.54s-.45.29-.67.42l-.08,0a11.58,11.58,0,0,1-1.51.73h0a8.77,8.77,0,0,1-3.28.66q-5.25,0-5.25-7.11A19.93,19.93,0,0,1,37.2,51.26a27.23,27.23,0,0,1,3.26-2.88h0c.65-.48,1.32-.92,2-1.34l.33-.2.88-.49.58-.29.79-.38c.43-.2.87-.38,1.32-.55l.57-.2c.35-.12.7-.24,1.06-.34a5.08,5.08,0,0,1,.52-.15c.52-.15,1.06-.28,1.6-.39C49.85,45.45,49.63,46.83,49.43,48.18Z"/></g></g></svg>